# Blender v2.79 (sub 0) OBJ File: ''
# www.blender.org
mtllib one_tool_meter.mtl
o Shape_convex_1
v 0.002938 0.040072 -0.223978
v 0.012222 0.049357 -0.277348
v 0.012222 0.047035 -0.279670
v 0.002938 0.049357 -0.277348
v 0.002938 0.028469 -0.279670
v 0.012222 0.040072 -0.223978
v 0.012222 0.028469 -0.272702
v 0.002938 0.049357 -0.226300
v 0.012222 0.049357 -0.226300
v 0.012222 0.028469 -0.279670
v 0.002938 0.028469 -0.272702
v 0.002938 0.047035 -0.279670
v 0.002938 0.047035 -0.223978
vn 0.0000 0.7071 0.7071
vn 0.0000 0.7071 -0.7071
vn -1.0000 0.0000 0.0000
vn 1.0000 0.0000 0.0000
vn 0.0000 -0.9728 0.2317
vn 0.0000 1.0000 0.0000
vn 0.0000 0.0000 -1.0000
vn 0.0000 -1.0000 0.0000
vn 0.0000 0.0000 1.0000
vn 0.1790 0.2387 0.9545
usemtl Shape.007
s off
f 9//1 8//1 13//1
f 2//2 3//2 4//2
f 1//3 4//3 5//3
f 3//4 2//4 6//4
f 6//5 1//5 7//5
f 3//4 6//4 7//4
f 2//6 4//6 8//6
f 4//3 1//3 8//3
f 6//4 2//4 9//4
f 2//6 8//6 9//6
f 5//7 3//7 10//7
f 7//8 5//8 10//8
f 3//4 7//4 10//4
f 1//3 5//3 11//3
f 7//5 1//5 11//5
f 5//8 7//8 11//8
f 4//2 3//2 12//2
f 5//3 4//3 12//3
f 3//7 5//7 12//7
f 1//9 6//9 13//9
f 8//3 1//3 13//3
f 6//10 9//10 13//10
o Shape_convex_2
v -0.015629 0.040072 -0.223978
v -0.006347 0.049357 -0.277348
v -0.006347 0.047035 -0.279670
v -0.015629 0.049357 -0.277348
v -0.015629 0.028469 -0.279670
v -0.006347 0.040072 -0.223978
v -0.006347 0.028469 -0.272702
v -0.015629 0.049357 -0.226300
v -0.006347 0.049357 -0.226300
v -0.006347 0.028469 -0.279670
v -0.015629 0.028469 -0.272702
v -0.015629 0.047035 -0.279670
v -0.015629 0.047035 -0.223978
vn 0.0000 0.7071 0.7071
vn 0.0000 0.7071 -0.7071
vn -1.0000 -0.0000 0.0000
vn 1.0000 0.0000 0.0000
vn 0.0000 -0.9728 0.2317
vn 0.0000 1.0000 0.0000
vn 0.0000 0.0000 -1.0000
vn 0.0000 -1.0000 0.0000
vn 0.0000 0.0000 1.0000
vn 0.1791 0.2387 0.9544
usemtl Shape.006
s off
f 22//11 21//11 26//11
f 15//12 16//12 17//12
f 14//13 17//13 18//13
f 16//14 15//14 19//14
f 19//15 14//15 20//15
f 16//14 19//14 20//14
f 15//16 17//16 21//16
f 17//13 14//13 21//13
f 19//14 15//14 22//14
f 15//16 21//16 22//16
f 18//17 16//17 23//17
f 20//18 18//18 23//18
f 16//14 20//14 23//14
f 14//13 18//13 24//13
f 20//15 14//15 24//15
f 18//18 20//18 24//18
f 17//12 16//12 25//12
f 18//13 17//13 25//13
f 16//17 18//17 25//17
f 14//19 19//19 26//19
f 21//13 14//13 26//13
f 19//20 22//20 26//20
o Shape_convex_3
v -0.020271 0.028469 -0.307527
v 0.021506 0.033111 -0.323771
v 0.021506 0.033111 -0.316809
v 0.021506 0.028469 -0.323771
v -0.020271 0.033111 -0.323771
v -0.020271 0.028469 -0.323771
v 0.019183 0.028469 -0.307527
v -0.020271 0.030790 -0.307527
v -0.020271 0.033111 -0.314492
v 0.019183 0.030790 -0.307527
v 0.019183 0.033111 -0.314492
v 0.021506 0.028469 -0.309850
vn 0.7071 0.0000 0.7071
vn 1.0000 0.0000 0.0000
vn 0.0000 1.0000 0.0000
vn 0.0000 0.0000 -1.0000
vn 0.0000 -1.0000 0.0000
vn -1.0000 0.0000 0.0000
vn 0.0000 0.0000 1.0000
vn 0.0000 0.9487 0.3161
vn 0.3007 0.9048 0.3015
vn 0.8110 0.4867 0.3247
usemtl Shape.005
s off
f 36//21 33//21 38//21
f 28//22 29//22 30//22
f 29//23 28//23 31//23
f 28//24 30//24 31//24
f 30//25 27//25 32//25
f 27//26 31//26 32//26
f 31//24 30//24 32//24
f 27//25 30//25 33//25
f 31//26 27//26 34//26
f 27//27 33//27 34//27
f 29//23 31//23 35//23
f 31//26 34//26 35//26
f 35//28 34//28 36//28
f 34//27 33//27 36//27
f 29//23 35//23 37//23
f 35//28 36//28 37//28
f 36//29 29//29 37//29
f 30//22 29//22 38//22
f 33//25 30//25 38//25
f 29//30 36//30 38//30
o Shape_convex_4
v 0.028459 0.014540 -0.309813
v -0.036518 0.021505 -0.244843
v -0.036518 0.028469 -0.244843
v 0.035432 0.023820 -0.119550
v -0.027229 -0.031876 -0.119529
v 0.030783 -0.029555 -0.230919
v -0.020263 -0.008662 -0.326082
v -0.034194 0.026147 -0.119529
v 0.028459 -0.031876 -0.119529
v 0.021501 0.028469 -0.323758
v -0.031870 -0.027233 -0.230919
v -0.036518 0.014540 -0.309813
v 0.021501 -0.004019 -0.335378
v 0.030783 0.028469 -0.119529
v -0.020263 0.028469 -0.323758
v -0.034194 -0.024912 -0.119529
v 0.035432 -0.022590 -0.214692
v 0.035432 0.023820 -0.214692
v -0.027229 -0.031876 -0.217038
v 0.019177 -0.017948 -0.300559
v 0.035432 -0.022590 -0.119550
v -0.020263 0.002933 -0.335378
v -0.036518 0.005255 -0.309813
v -0.020263 -0.017948 -0.300559
v -0.031870 0.028469 -0.119529
v 0.028459 -0.031876 -0.217038
v -0.034194 -0.024912 -0.221665
v 0.028459 0.005255 -0.309813
v 0.019177 0.009897 -0.333054
v 0.030783 0.028469 -0.219341
v -0.020263 -0.004019 -0.335378
v 0.028459 0.021505 -0.307510
vn 0.7869 0.6126 -0.0744
vn -0.9998 0.0000 0.0185
vn 0.0000 0.0000 1.0000
vn -1.0000 0.0000 0.0000
vn 0.0000 1.0000 0.0000
vn -0.7133 0.6853 -0.1469
vn 0.7071 0.7071 0.0000
vn 0.9973 0.0000 -0.0731
vn 1.0000 0.0000 0.0000
vn 0.0000 -1.0000 0.0000
vn -0.7071 -0.7072 0.0000
vn 0.6882 -0.6883 -0.2294
vn 0.0209 -0.9287 -0.3701
vn 0.7996 -0.6005 0.0042
vn 0.0032 -0.0001 1.0000
vn 0.0045 0.0000 1.0000
vn 0.8317 -0.5552 0.0000
vn -0.7505 0.2737 -0.6015
vn -0.9995 -0.0299 0.0075
vn -0.8439 0.0000 -0.5366
vn -0.3663 -0.9124 -0.1827
vn 0.0000 -0.9397 -0.3419
vn 0.0000 -0.9864 -0.1645
vn -0.7537 -0.6176 -0.2247
vn -0.7599 -0.6156 -0.2087
vn -0.7066 0.7072 0.0262
vn 0.7067 -0.7076 0.0000
vn 0.0016 -0.9863 -0.1647
vn -0.7070 -0.7072 -0.0002
vn -0.8992 -0.4207 -0.1203
vn -0.9970 -0.0768 0.0000
vn 0.9649 0.0000 -0.2626
vn 0.9459 -0.2856 -0.1539
vn 0.9480 -0.2799 -0.1514
vn 0.7322 0.2294 -0.6413
vn 0.0000 0.4476 -0.8942
vn 0.0282 0.1692 -0.9852
vn -0.0195 0.4141 -0.9100
vn 0.7376 0.6720 -0.0656
vn 0.0000 -0.8946 -0.4468
vn 0.0000 0.0000 -1.0000
vn -0.7716 -0.5690 -0.2842
vn 0.9356 0.1108 -0.3351
vn 0.9303 0.1235 -0.3454
vn 0.9968 0.0250 -0.0755
usemtl Shape.004
s off
f 48//31 56//31 70//31
f 41//32 40//32 46//32
f 46//33 43//33 47//33
f 40//34 41//34 50//34
f 46//33 47//33 52//33
f 48//35 41//35 52//35
f 41//35 48//35 53//35
f 50//36 41//36 53//36
f 46//32 40//32 54//32
f 43//33 46//33 54//33
f 52//37 42//37 56//37
f 55//38 39//38 56//38
f 42//39 55//39 56//39
f 47//40 43//40 57//40
f 43//41 54//41 57//41
f 51//42 44//42 58//42
f 45//43 51//43 58//43
f 47//44 44//44 59//44
f 52//45 47//45 59//45
f 42//46 52//46 59//46
f 55//39 42//39 59//39
f 44//47 55//47 59//47
f 50//48 53//48 60//48
f 40//34 50//34 61//34
f 54//49 40//49 61//49
f 50//50 60//50 61//50
f 57//51 49//51 62//51
f 45//52 58//52 62//52
f 58//53 57//53 62//53
f 61//54 45//54 62//54
f 49//55 61//55 62//55
f 41//56 46//56 63//56
f 52//35 41//35 63//35
f 46//33 52//33 63//33
f 44//57 47//57 64//57
f 47//40 57//40 64//40
f 58//58 44//58 64//58
f 57//53 58//53 64//53
f 49//59 57//59 65//59
f 57//41 54//41 65//41
f 61//60 49//60 65//60
f 54//61 61//61 65//61
f 51//62 39//62 66//62
f 44//63 51//63 66//63
f 39//38 55//38 66//38
f 55//64 44//64 66//64
f 48//65 51//65 67//65
f 53//66 48//66 67//66
f 51//67 60//67 67//67
f 60//68 53//68 67//68
f 48//35 52//35 68//35
f 56//69 48//69 68//69
f 52//37 56//37 68//37
f 51//70 45//70 69//70
f 60//71 51//71 69//71
f 45//72 61//72 69//72
f 61//50 60//50 69//50
f 39//73 51//73 70//73
f 51//74 48//74 70//74
f 56//75 39//75 70//75
o Shape_convex_5
v 0.040074 0.009889 0.001160
v -0.041160 -0.004018 0.001160
v -0.038830 -0.015627 0.001160
v -0.034194 0.026142 -0.119529
v 0.028464 -0.031873 -0.119529
v 0.030786 0.028464 -0.119529
v -0.010984 0.040074 0.001160
v -0.034194 -0.024907 -0.119529
v 0.005254 -0.041160 0.001160
v 0.035422 -0.022585 0.001160
v 0.014541 0.040074 -0.052226
v -0.010984 -0.041160 -0.040625
v 0.035422 -0.022585 -0.119529
v -0.034194 0.023820 0.001160
v 0.026142 0.033108 0.001160
v -0.027229 -0.031873 0.001160
v -0.027229 -0.031873 -0.119529
v 0.035422 0.023820 -0.119529
v -0.041160 0.009889 -0.052226
v -0.013306 0.040074 -0.054553
v 0.040074 -0.013306 -0.054553
v 0.026142 -0.034194 -0.029024
v -0.027229 0.033108 -0.026696
v 0.009897 -0.041160 -0.040625
v -0.041160 -0.010984 -0.052226
v -0.031873 0.028464 -0.119529
v 0.040074 0.014533 -0.052226
v 0.009897 0.040074 0.001160
v 0.033100 0.026142 0.001160
v -0.015627 -0.038838 0.001160
v -0.036516 -0.022585 -0.029024
v 0.040074 -0.010984 0.001160
vn 0.9280 -0.3721 0.0155
vn 0.0000 0.0000 1.0000
vn -0.0000 0.0000 -1.0000
vn 0.8003 -0.5996 0.0000
vn 0.5511 0.8343 -0.0109
vn 0.0000 -0.9931 -0.1169
vn -0.9947 0.0000 -0.1030
vn -0.9682 0.2423 0.0631
vn -0.9065 0.4222 0.0081
vn 0.0139 0.9859 -0.1667
vn 0.0000 1.0000 0.0000
vn 0.8939 -0.4482 0.0000
vn 0.9974 0.0000 -0.0714
vn 0.7763 -0.6303 0.0038
vn 0.5172 -0.8400 0.1641
vn -0.7824 0.6227 0.0120
vn -0.5689 0.8123 0.1286
vn -0.4192 0.9077 0.0175
vn 0.0000 -1.0000 0.0000
vn 0.4020 -0.9155 -0.0132
vn 0.3689 -0.9286 0.0410
vn -0.9801 -0.1967 0.0257
vn -1.0000 0.0000 0.0000
vn 0.0000 0.9844 -0.1759
vn -0.7073 0.7070 0.0000
vn -0.4790 0.8776 -0.0199
vn 1.0000 0.0000 0.0000
vn 0.9977 0.0057 -0.0682
vn 0.3939 0.9185 0.0343
vn 0.7075 0.7067 0.0000
vn 0.7077 0.7065 0.0000
vn 0.9184 0.3941 0.0343
vn 0.8717 0.4899 0.0073
vn -0.1104 -0.9930 0.0429
vn -0.4796 -0.8775 -0.0045
vn -0.5147 -0.8574 0.0000
vn -0.8117 -0.5796 0.0714
vn -0.7071 -0.7071 0.0000
vn -0.7072 -0.7071 -0.0000
vn -0.9351 -0.3543 0.0100
vn -0.9187 -0.3947 -0.0134
usemtl Shape.003
s off
f 80//76 91//76 102//76
f 71//77 72//77 73//77
f 75//78 74//78 76//78
f 72//77 71//77 77//77
f 74//78 75//78 78//78
f 71//77 73//77 79//77
f 71//77 79//77 80//77
f 75//78 76//78 83//78
f 80//79 75//79 83//79
f 72//77 77//77 84//77
f 77//77 71//77 85//77
f 76//80 81//80 85//80
f 79//77 73//77 86//77
f 78//78 75//78 87//78
f 75//81 82//81 87//81
f 83//78 76//78 88//78
f 74//82 78//82 89//82
f 72//83 84//83 89//83
f 84//84 74//84 89//84
f 81//85 76//85 90//85
f 77//86 81//86 90//86
f 80//87 83//87 91//87
f 83//88 88//88 91//88
f 75//89 80//89 92//89
f 80//90 79//90 92//90
f 74//91 84//91 93//91
f 84//92 77//92 93//92
f 77//93 90//93 93//93
f 82//81 75//81 94//81
f 79//94 82//94 94//94
f 75//95 92//95 94//95
f 92//96 79//96 94//96
f 73//97 72//97 95//97
f 72//98 89//98 95//98
f 89//82 78//82 95//82
f 76//78 74//78 96//78
f 90//99 76//99 96//99
f 74//100 93//100 96//100
f 93//101 90//101 96//101
f 71//102 91//102 97//102
f 91//103 88//103 97//103
f 81//86 77//86 98//86
f 77//77 85//77 98//77
f 85//104 81//104 98//104
f 85//77 71//77 99//77
f 76//105 85//105 99//105
f 88//106 76//106 99//106
f 71//107 97//107 99//107
f 97//108 88//108 99//108
f 82//109 79//109 100//109
f 79//77 86//77 100//77
f 87//110 82//110 100//110
f 86//111 87//111 100//111
f 86//112 73//112 101//112
f 87//113 86//113 101//113
f 78//114 87//114 101//114
f 73//115 95//115 101//115
f 95//116 78//116 101//116
f 71//77 80//77 102//77
f 91//102 71//102 102//102
