# Blender v2.79 (sub 0) OBJ File: ''
# www.blender.org
mtllib one_finger_meter.mtl
o Shape_convex_1
v -0.014245 0.037437 0.008646
v 0.026533 0.039403 -0.008060
v 0.027026 0.039403 -0.007566
v 0.019164 0.036946 0.001766
v 0.026533 0.039403 0.008152
v -0.014245 0.038911 -0.000196
v -0.014245 0.037437 -0.000196
v -0.014245 0.038911 0.008646
v 0.019164 0.036946 0.007663
v 0.013759 0.038911 -0.008060
v -0.013260 0.036946 0.001766
v 0.013759 0.039403 -0.008060
v 0.027026 0.038911 -0.007566
v 0.013759 0.039403 0.008152
v 0.020146 0.037437 0.008646
v -0.013260 0.036946 0.007663
v 0.027026 0.038911 0.007663
v 0.020146 0.038911 0.008646
v 0.026533 0.038911 -0.008060
v 0.027026 0.039403 0.007663
vn 0.7042 0.0000 0.7100
vn 0.0000 1.0000 0.0000
vn -1.0000 0.0000 0.0000
vn -0.2704 0.0000 -0.9628
vn -0.0150 -0.9717 -0.2356
vn -0.4461 -0.8950 0.0000
vn 0.0000 -1.0000 0.0000
vn 0.0000 -0.9806 -0.1961
vn -0.0176 0.9998 0.0000
vn 0.0000 0.0000 -1.0000
vn 0.7078 0.0000 -0.7064
vn 0.2425 -0.9702 0.0000
vn 0.0000 0.7085 0.7057
vn 0.0000 0.0000 1.0000
vn 0.0000 -0.8946 0.4469
vn 0.0000 -0.8946 0.4468
vn 1.0000 0.0000 0.0000
vn 0.2333 -0.5578 0.7965
vn 0.2357 -0.9429 0.2355
vn 0.0771 0.0000 0.9970
vn 0.1129 -0.9872 -0.1127
usemtl Shape.002
s off
f 5//1 17//1 20//1
f 3//2 2//2 5//2
f 1//3 6//3 7//3
f 6//3 1//3 8//3
f 7//4 6//4 10//4
f 7//5 10//5 11//5
f 1//6 7//6 11//6
f 4//7 9//7 11//7
f 10//8 4//8 11//8
f 5//2 2//2 12//2
f 6//9 8//9 12//9
f 2//10 10//10 12//10
f 10//4 6//4 12//4
f 2//11 3//11 13//11
f 9//12 4//12 13//12
f 8//13 5//13 14//13
f 5//2 12//2 14//2
f 12//9 8//9 14//9
f 8//14 1//14 15//14
f 1//15 9//15 15//15
f 9//16 1//16 16//16
f 1//6 11//6 16//6
f 11//7 9//7 16//7
f 13//17 3//17 17//17
f 9//12 13//12 17//12
f 5//18 15//18 17//18
f 15//19 9//19 17//19
f 5//13 8//13 18//13
f 8//14 15//14 18//14
f 15//20 5//20 18//20
f 10//10 2//10 19//10
f 4//8 10//8 19//8
f 2//11 13//11 19//11
f 13//21 4//21 19//21
f 3//2 5//2 20//2
f 17//17 3//17 20//17
o Shape_convex_2
v 0.019165 0.036946 0.001768
v -0.013263 0.025155 0.007663
v -0.013263 0.025155 0.001768
v 0.019165 0.025155 0.007663
v -0.013263 0.036946 0.007663
v -0.013263 0.036946 0.001768
v 0.019165 0.025155 0.001768
v 0.019165 0.036946 0.007663
vn 0.0000 0.0000 1.0000
vn 0.0000 -1.0000 0.0000
vn -1.0000 0.0000 0.0000
vn 0.0000 0.0000 -1.0000
vn 0.0000 1.0000 0.0000
vn 1.0000 0.0000 0.0000
usemtl Shape.001
s off
f 25//22 24//22 28//22
f 22//23 23//23 24//23
f 23//24 22//24 25//24
f 22//22 24//22 25//22
f 21//25 23//25 26//25
f 25//26 21//26 26//26
f 23//24 25//24 26//24
f 23//25 21//25 27//25
f 24//23 23//23 27//23
f 21//27 24//27 27//27
f 24//27 21//27 28//27
f 21//26 25//26 28//26
o Shape_convex_3
v 0.006882 0.098851 0.002257
v 0.027026 0.052182 -0.007568
v 0.027026 0.052182 0.007661
v 0.013759 0.039403 -0.008060
v 0.013759 0.039403 0.008154
v 0.027026 0.039408 -0.008060
v 0.006882 0.090003 -0.003636
v 0.027026 0.039408 0.008154
v 0.009340 0.097379 -0.001671
v 0.013270 0.054147 0.008154
v 0.013270 0.054634 -0.008060
v 0.006882 0.087058 0.003729
v 0.025060 0.054634 -0.008060
v 0.025060 0.054147 0.008154
v 0.008848 0.096886 0.002747
v 0.008357 0.097866 -0.002654
v 0.014252 0.085092 0.003239
v 0.006882 0.087058 -0.003636
v 0.026042 0.055127 -0.007076
v 0.026042 0.055127 0.007169
v 0.007375 0.085585 0.004221
v 0.006882 0.099344 -0.001671
v 0.008357 0.099344 0.001273
v 0.026533 0.052669 0.008154
v 0.023094 0.061511 -0.007076
v 0.007866 0.081654 -0.004619
v 0.010813 0.093448 0.002747
v 0.013270 0.087551 -0.003146
v 0.006882 0.097379 0.002747
v 0.027026 0.051689 -0.008060
v 0.012288 0.057586 -0.007568
v 0.008357 0.098851 -0.002163
vn 0.6946 0.3564 -0.6249
vn 1.0000 0.0000 0.0000
vn 0.0004 -1.0000 0.0000
vn 0.0000 0.0000 1.0000
vn 0.0000 0.0000 -1.0000
vn -0.9897 -0.1428 0.0000
vn -1.0000 0.0000 0.0000
vn -0.0005 0.1240 -0.9923
vn 0.0000 0.1241 -0.9923
vn 0.9485 0.3169 0.0000
vn 0.9306 0.3661 0.0000
vn -0.6295 -0.0209 0.7767
vn -0.7837 -0.0556 0.6187
vn -0.4072 0.1880 -0.8938
vn 0.3392 0.5327 0.7753
vn -0.2412 0.9629 0.1209
vn 0.7199 0.0268 0.6935
vn 0.1969 0.1962 0.9606
vn 0.8122 0.3494 0.4671
vn 0.1736 0.1879 -0.9667
vn -0.1156 0.1027 -0.9880
vn -0.9163 -0.0962 -0.3887
vn -0.7067 0.0000 -0.7075
vn 0.9236 0.3820 0.0320
vn 0.8964 0.3821 0.2245
vn 0.7645 0.4369 0.4740
vn 0.9183 0.3935 0.0440
vn 0.5508 0.3148 0.7730
vn 0.7652 0.3653 0.5301
vn 0.9285 0.3713 0.0002
vn 0.9303 0.3667 -0.0019
vn 0.8093 0.3737 -0.4532
vn 0.0000 0.1241 0.9923
vn 0.0347 0.1384 0.9898
vn 0.0790 0.3149 0.9458
vn -0.0008 0.1240 0.9923
vn -0.5792 0.0772 0.8115
vn 0.8695 0.3489 -0.3496
vn 0.3418 0.2282 -0.9117
vn 0.7932 0.3663 -0.4865
vn -0.4849 -0.0156 -0.8744
vn -0.6800 -0.0352 -0.7324
vn -0.2836 0.0651 -0.9567
vn -0.1478 0.4412 -0.8851
vn 0.2727 0.9523 -0.1366
vn 0.8408 0.5358 -0.0769
vn 0.6396 0.3429 -0.6880
vn 0.8060 0.3892 -0.4459
usemtl Shape
s off
f 56//28 53//28 60//28
f 30//29 31//29 34//29
f 33//30 32//30 34//30
f 34//29 31//29 36//29
f 33//30 34//30 36//30
f 33//31 36//31 38//31
f 34//32 32//32 39//32
f 32//33 33//33 40//33
f 29//34 35//34 40//34
f 34//32 39//32 41//32
f 38//31 36//31 42//31
f 39//35 35//35 44//35
f 41//36 39//36 44//36
f 32//33 40//33 46//33
f 40//34 35//34 46//34
f 31//37 30//37 47//37
f 47//38 45//38 48//38
f 31//37 47//37 48//37
f 33//39 38//39 49//39
f 40//40 33//40 49//40
f 35//34 29//34 50//34
f 44//41 35//41 50//41
f 29//42 43//42 51//42
f 50//43 29//43 51//43
f 36//44 31//44 52//44
f 42//31 36//31 52//31
f 43//45 42//45 52//45
f 31//46 48//46 52//46
f 41//47 44//47 53//47
f 35//48 39//48 54//48
f 32//49 46//49 54//49
f 46//50 35//50 54//50
f 45//51 37//51 55//51
f 48//52 45//52 55//52
f 51//53 43//53 55//53
f 37//54 51//54 55//54
f 43//55 52//55 55//55
f 52//56 48//56 55//56
f 37//57 45//57 56//57
f 45//58 47//58 56//58
f 47//59 53//59 56//59
f 29//34 40//34 57//34
f 38//60 42//60 57//60
f 42//61 43//61 57//61
f 43//62 29//62 57//62
f 49//63 38//63 57//63
f 40//64 49//64 57//64
f 30//29 34//29 58//29
f 34//32 41//32 58//32
f 47//65 30//65 58//65
f 41//66 53//66 58//66
f 53//67 47//67 58//67
f 39//68 32//68 59//68
f 32//69 54//69 59//69
f 54//70 39//70 59//70
f 44//71 50//71 60//71
f 50//72 51//72 60//72
f 51//73 37//73 60//73
f 53//74 44//74 60//74
f 37//75 56//75 60//75
